<svg id="Capa_1" enable-background="new 0 0 512 512" height="512" viewBox="0 0 512 512" width="512" xmlns="http://www.w3.org/2000/svg"><g><path d="m470.43 254.868h-59.672c-1.929 0-3.797.678-5.277 1.915l-18.581 15.537c-2.436 2.037-5.51 3.152-8.685 3.152h-174.003c-4.377 0-8.483-2.115-11.024-5.679l-22.876-32.078c-1.544-2.165-4.039-3.45-6.698-3.45h-119.607c-2.182 0-4.274.867-5.817 2.41l-35.78 35.78c-1.543 1.543-2.41 3.635-2.41 5.817v171.429c0 1.906.757 3.733 2.105 5.081l35.442 35.442c1.348 1.348 3.175 2.105 5.081 2.105h62.53c1.853 0 3.635.716 4.973 1.999l16.349 15.675c1.338 1.283 3.12 1.999 4.973 1.999h249.161c1.629 0 3.21-.554 4.483-1.57l20.711-16.532c1.273-1.016 2.854-1.57 4.483-1.57h60.149c1.906 0 3.733-.757 5.081-2.105l34.377-34.377c1.348-1.348 2.105-3.175 2.105-5.081v-154.329c0-2.182-.867-4.274-2.41-5.817l-33.343-33.343c-1.545-1.543-3.638-2.41-5.82-2.41z" fill="#30579d"/><g><path d="m470.43 254.868h-21.438l29.259 29.259c5.701 5.701 8.903 13.432 8.903 21.494v135.53c0 8.062-3.203 15.793-8.903 21.494l-29.683 29.683h21.87c1.906 0 3.733-.757 5.081-2.105l34.377-34.377c1.348-1.348 2.105-3.175 2.105-5.081v-154.327c0-2.182-.867-4.274-2.41-5.817l-33.343-33.343c-1.543-1.543-3.636-2.41-5.818-2.41z" fill="#26457d"/></g><g><g><path d="m53.149 318.483h-5.321c-4.268 0-7.726-3.459-7.726-7.726 0-4.268 3.459-7.726 7.726-7.726h5.321c4.268 0 7.726 3.459 7.726 7.726s-3.459 7.726-7.726 7.726z" fill="#26457d"/></g><g><path d="m53.149 358.88h-5.321c-4.268 0-7.726-3.459-7.726-7.726s3.459-7.726 7.726-7.726h5.321c4.268 0 7.726 3.459 7.726 7.726s-3.459 7.726-7.726 7.726z" fill="#26457d"/></g><g><path d="m75.259 390.432h-27.431c-4.268 0-7.726-3.459-7.726-7.726s3.459-7.726 7.726-7.726h27.432c4.268 0 7.726 3.459 7.726 7.726s-3.459 7.726-7.727 7.726z" fill="#26457d"/></g><g><path d="m86.315 421.984h-38.487c-4.268 0-7.726-3.459-7.726-7.726s3.459-7.726 7.726-7.726h38.487c4.268 0 7.726 3.459 7.726 7.726s-3.459 7.726-7.726 7.726z" fill="#26457d"/></g><g><path d="m53.149 453.535h-5.321c-4.268 0-7.726-3.459-7.726-7.726s3.459-7.726 7.726-7.726h5.321c4.268 0 7.726 3.459 7.726 7.726s-3.459 7.726-7.726 7.726z" fill="#26457d"/></g><g><path d="m84.765 358.88h-5.321c-4.268 0-7.726-3.459-7.726-7.726s3.459-7.726 7.726-7.726h5.321c4.268 0 7.726 3.459 7.726 7.726s-3.458 7.726-7.726 7.726z" fill="#26457d"/></g><g><path d="m84.765 453.535h-5.321c-4.268 0-7.726-3.459-7.726-7.726s3.459-7.726 7.726-7.726h5.321c4.268 0 7.726 3.459 7.726 7.726s-3.458 7.726-7.726 7.726z" fill="#26457d"/></g><g><path d="m116.383 318.483h-5.321c-4.268 0-7.726-3.459-7.726-7.726 0-4.268 3.459-7.726 7.726-7.726h5.321c4.268 0 7.726 3.459 7.726 7.726s-3.458 7.726-7.726 7.726z" fill="#26457d"/></g><g><path d="m116.383 358.88h-5.321c-4.268 0-7.726-3.459-7.726-7.726s3.459-7.726 7.726-7.726h5.321c4.268 0 7.726 3.459 7.726 7.726s-3.458 7.726-7.726 7.726z" fill="#26457d"/></g><g><path d="m116.383 453.535h-5.321c-4.268 0-7.726-3.459-7.726-7.726s3.459-7.726 7.726-7.726h5.321c4.268 0 7.726 3.459 7.726 7.726s-3.458 7.726-7.726 7.726z" fill="#26457d"/></g><g><path d="m148 318.483h-5.321c-4.268 0-7.726-3.459-7.726-7.726 0-4.268 3.459-7.726 7.726-7.726h5.321c4.268 0 7.726 3.459 7.726 7.726s-3.459 7.726-7.726 7.726z" fill="#26457d"/></g><g><path d="m148 358.88h-5.321c-4.268 0-7.726-3.459-7.726-7.726s3.459-7.726 7.726-7.726h5.321c4.268 0 7.726 3.459 7.726 7.726s-3.459 7.726-7.726 7.726z" fill="#dd636e"/></g><g><path d="m242.852 453.535h-100.173c-4.268 0-7.726-3.459-7.726-7.726s3.459-7.726 7.726-7.726h100.173c4.268 0 7.726 3.459 7.726 7.726s-3.459 7.726-7.726 7.726z" fill="#26457d"/></g><g><path d="m179.617 318.483h-5.321c-4.268 0-7.726-3.459-7.726-7.726 0-4.268 3.459-7.726 7.726-7.726h5.321c4.268 0 7.726 3.459 7.726 7.726.001 4.267-3.458 7.726-7.726 7.726z" fill="#26457d"/></g><g><path d="m179.617 358.88h-5.321c-4.268 0-7.726-3.459-7.726-7.726s3.459-7.726 7.726-7.726h5.321c4.268 0 7.726 3.459 7.726 7.726s-3.458 7.726-7.726 7.726z" fill="#26457d"/></g><g><path d="m211.235 358.88h-5.322c-4.268 0-7.726-3.459-7.726-7.726s3.459-7.726 7.726-7.726h5.322c4.268 0 7.726 3.459 7.726 7.726s-3.458 7.726-7.726 7.726z" fill="#26457d"/></g><g><path d="m242.852 358.88h-5.321c-4.268 0-7.726-3.459-7.726-7.726s3.459-7.726 7.726-7.726h5.321c4.268 0 7.726 3.459 7.726 7.726s-3.459 7.726-7.726 7.726z" fill="#26457d"/></g><g><path d="m274.469 318.483h-5.321c-4.268 0-7.726-3.459-7.726-7.726 0-4.268 3.459-7.726 7.726-7.726h5.321c4.268 0 7.726 3.459 7.726 7.726.001 4.267-3.458 7.726-7.726 7.726z" fill="#26457d"/></g><g><path d="m274.469 358.88h-5.321c-4.268 0-7.726-3.459-7.726-7.726s3.459-7.726 7.726-7.726h5.321c4.268 0 7.726 3.459 7.726 7.726s-3.458 7.726-7.726 7.726z" fill="#26457d"/></g><g><path d="m274.469 453.535h-5.321c-4.268 0-7.726-3.459-7.726-7.726s3.459-7.726 7.726-7.726h5.321c4.268 0 7.726 3.459 7.726 7.726s-3.458 7.726-7.726 7.726z" fill="#26457d"/></g><g><path d="m306.086 318.483h-5.321c-4.268 0-7.726-3.459-7.726-7.726 0-4.268 3.459-7.726 7.726-7.726h5.321c4.268 0 7.726 3.459 7.726 7.726s-3.458 7.726-7.726 7.726z" fill="#26457d"/></g><g><path d="m337.704 318.483h-5.321c-4.268 0-7.726-3.459-7.726-7.726 0-4.268 3.459-7.726 7.726-7.726h5.321c4.268 0 7.726 3.459 7.726 7.726s-3.459 7.726-7.726 7.726z" fill="#26457d"/></g><g><path d="m337.704 358.88h-27.432c-4.268 0-7.726-3.459-7.726-7.726s3.459-7.726 7.726-7.726h27.432c4.268 0 7.726 3.459 7.726 7.726s-3.459 7.726-7.726 7.726z" fill="#26457d"/></g><g><path d="m116.383 390.432h-5.321c-4.268 0-7.726-3.459-7.726-7.726s3.459-7.726 7.726-7.726h5.321c4.268 0 7.726 3.459 7.726 7.726s-3.458 7.726-7.726 7.726z" fill="#dd636e"/></g><g><path d="m148 390.432h-5.321c-4.268 0-7.726-3.459-7.726-7.726s3.459-7.726 7.726-7.726h5.321c4.268 0 7.726 3.459 7.726 7.726s-3.459 7.726-7.726 7.726z" fill="#dd636e"/></g><g><path d="m179.617 390.432h-5.321c-4.268 0-7.726-3.459-7.726-7.726s3.459-7.726 7.726-7.726h5.321c4.268 0 7.726 3.459 7.726 7.726s-3.458 7.726-7.726 7.726z" fill="#dd636e"/></g><g><path d="m211.235 390.432h-5.322c-4.268 0-7.726-3.459-7.726-7.726s3.459-7.726 7.726-7.726h5.322c4.268 0 7.726 3.459 7.726 7.726s-3.458 7.726-7.726 7.726z" fill="#26457d"/></g><g><path d="m242.852 390.432h-5.321c-4.268 0-7.726-3.459-7.726-7.726s3.459-7.726 7.726-7.726h5.321c4.268 0 7.726 3.459 7.726 7.726s-3.459 7.726-7.726 7.726z" fill="#26457d"/></g><g><path d="m274.469 390.432h-5.321c-4.268 0-7.726-3.459-7.726-7.726s3.459-7.726 7.726-7.726h5.321c4.268 0 7.726 3.459 7.726 7.726s-3.458 7.726-7.726 7.726z" fill="#26457d"/></g><g><path d="m337.704 421.984c-4.268 0-7.726-3.459-7.726-7.726v-23.826h-19.705c-4.268 0-7.726-3.459-7.726-7.726s3.459-7.726 7.726-7.726h27.432c4.268 0 7.726 3.459 7.726 7.726v31.552c-.001 4.267-3.46 7.726-7.727 7.726z" fill="#26457d"/></g><g><path d="m116.383 421.984h-5.321c-4.268 0-7.726-3.459-7.726-7.726s3.459-7.726 7.726-7.726h5.321c4.268 0 7.726 3.459 7.726 7.726s-3.458 7.726-7.726 7.726z" fill="#26457d"/></g><g><path d="m148 421.984h-5.321c-4.268 0-7.726-3.459-7.726-7.726s3.459-7.726 7.726-7.726h5.321c4.268 0 7.726 3.459 7.726 7.726s-3.459 7.726-7.726 7.726z" fill="#26457d"/></g><g><path d="m179.617 421.984h-5.321c-4.268 0-7.726-3.459-7.726-7.726s3.459-7.726 7.726-7.726h5.321c4.268 0 7.726 3.459 7.726 7.726s-3.458 7.726-7.726 7.726z" fill="#26457d"/></g><g><path d="m211.235 421.984h-5.322c-4.268 0-7.726-3.459-7.726-7.726s3.459-7.726 7.726-7.726h5.322c4.268 0 7.726 3.459 7.726 7.726s-3.458 7.726-7.726 7.726z" fill="#26457d"/></g><g><path d="m242.852 421.984h-5.321c-4.268 0-7.726-3.459-7.726-7.726s3.459-7.726 7.726-7.726h5.321c4.268 0 7.726 3.459 7.726 7.726s-3.459 7.726-7.726 7.726z" fill="#26457d"/></g><g><path d="m274.469 421.984h-5.321c-4.268 0-7.726-3.459-7.726-7.726s3.459-7.726 7.726-7.726h5.321c4.268 0 7.726 3.459 7.726 7.726s-3.458 7.726-7.726 7.726z" fill="#26457d"/></g><g><path d="m306.086 421.984h-5.321c-4.268 0-7.726-3.459-7.726-7.726s3.459-7.726 7.726-7.726h5.321c4.268 0 7.726 3.459 7.726 7.726s-3.458 7.726-7.726 7.726z" fill="#26457d"/></g><g><path d="m337.704 453.535h-27.432c-4.268 0-7.726-3.459-7.726-7.726s3.459-7.726 7.726-7.726h27.432c4.268 0 7.726 3.459 7.726 7.726s-3.459 7.726-7.726 7.726z" fill="#26457d"/></g><g><path d="m400.938 318.483h-5.321c-4.268 0-7.726-3.459-7.726-7.726 0-4.268 3.459-7.726 7.726-7.726h5.321c4.268 0 7.726 3.459 7.726 7.726.001 4.267-3.458 7.726-7.726 7.726z" fill="#26457d"/></g><g><path d="m400.938 358.88h-5.321c-4.268 0-7.726-3.459-7.726-7.726s3.459-7.726 7.726-7.726h5.321c4.268 0 7.726 3.459 7.726 7.726s-3.458 7.726-7.726 7.726z" fill="#26457d"/></g><g><path d="m400.938 453.535h-5.321c-4.268 0-7.726-3.459-7.726-7.726s3.459-7.726 7.726-7.726h5.321c4.268 0 7.726 3.459 7.726 7.726s-3.458 7.726-7.726 7.726z" fill="#dd636e"/></g><g><path d="m432.556 318.483h-5.321c-4.268 0-7.726-3.459-7.726-7.726 0-4.268 3.459-7.726 7.726-7.726h5.321c4.268 0 7.726 3.459 7.726 7.726s-3.458 7.726-7.726 7.726z" fill="#26457d"/></g><g><path d="m432.556 358.88h-5.321c-4.268 0-7.726-3.459-7.726-7.726s3.459-7.726 7.726-7.726h5.321c4.268 0 7.726 3.459 7.726 7.726s-3.458 7.726-7.726 7.726z" fill="#26457d"/></g><g><path d="m432.556 453.535h-5.321c-4.268 0-7.726-3.459-7.726-7.726s3.459-7.726 7.726-7.726h5.321c4.268 0 7.726 3.459 7.726 7.726s-3.458 7.726-7.726 7.726z" fill="#dd636e"/></g><g><path d="m464.173 318.483h-5.321c-4.268 0-7.726-3.459-7.726-7.726 0-4.268 3.459-7.726 7.726-7.726h5.321c4.268 0 7.726 3.459 7.726 7.726s-3.459 7.726-7.726 7.726z" fill="#26457d"/></g><g><path d="m464.173 358.88h-5.321c-4.268 0-7.726-3.459-7.726-7.726s3.459-7.726 7.726-7.726h5.321c4.268 0 7.726 3.459 7.726 7.726s-3.459 7.726-7.726 7.726z" fill="#26457d"/></g><g><path d="m400.938 390.432h-5.321c-4.268 0-7.726-3.459-7.726-7.726s3.459-7.726 7.726-7.726h5.321c4.268 0 7.726 3.459 7.726 7.726s-3.458 7.726-7.726 7.726z" fill="#26457d"/></g><g><path d="m432.556 390.432h-5.321c-4.268 0-7.726-3.459-7.726-7.726s3.459-7.726 7.726-7.726h5.321c4.268 0 7.726 3.459 7.726 7.726s-3.458 7.726-7.726 7.726z" fill="#26457d"/></g><g><path d="m464.173 390.432h-5.321c-4.268 0-7.726-3.459-7.726-7.726s3.459-7.726 7.726-7.726h5.321c4.268 0 7.726 3.459 7.726 7.726s-3.459 7.726-7.726 7.726z" fill="#26457d"/></g><g><path d="m432.556 421.984h-5.321c-4.268 0-7.726-3.459-7.726-7.726s3.459-7.726 7.726-7.726h5.321c4.268 0 7.726 3.459 7.726 7.726s-3.458 7.726-7.726 7.726z" fill="#dd636e"/></g><g><path d="m464.173 453.535h-5.321c-4.268 0-7.726-3.459-7.726-7.726s3.459-7.726 7.726-7.726h5.321c4.268 0 7.726 3.459 7.726 7.726s-3.459 7.726-7.726 7.726z" fill="#dd636e"/></g></g><path d="m323.988 275.472h-81.136v-20.816c0-3.504 2.84-6.344 6.344-6.344h68.448c3.504 0 6.344 2.84 6.344 6.344z" fill="#beb9dd"/><path d="m370.451 73.706h-92.414c-17.555 0-31.786-14.231-31.786-31.786v-35.345c0-3.631-2.944-6.575-6.575-6.575h-15.696c-3.631 0-6.575 2.944-6.575 6.575v35.346c0 33.485 27.145 60.63 60.63 60.63h91.74c17.296 0 31.934 13.536 32.446 30.824.532 17.964-13.925 32.746-31.77 32.746h-40.824c-33.485 0-60.63 27.145-60.63 60.63v21.561h28.845v-21.561c0-17.554 14.23-31.785 31.785-31.785h39.903c33.272 0 61.036-26.421 61.544-59.689.516-33.861-26.878-61.571-60.623-61.571z" fill="#30579d"/><path d="m268.998 232.672h28.845v15.64h-28.845z" fill="#26457d"/><path d="m134.032 266.302h-58.314c-4.776 0-8.647-3.871-8.647-8.647v-23.39h75.608v23.39c0 4.775-3.871 8.647-8.647 8.647z" fill="#dd636e"/><path d="m123 234.265v23.39c0 4.776-3.871 8.647-8.647 8.647h19.679c4.776 0 8.647-3.871 8.647-8.647v-23.39z" fill="#da4a54"/><path d="m337.704 512h-170.105v-22.459c0-4.282 3.471-7.753 7.753-7.753h154.598c4.282 0 7.753 3.471 7.753 7.753v22.459z" fill="#dd636e"/><path d="m329.95 481.787h-18.569c4.282 0 7.753 3.471 7.753 7.753v22.46h18.569v-22.459c.001-4.283-3.471-7.754-7.753-7.754z" fill="#da4a54"/></g></svg>